<svg width="80" height="80" viewBox="0 0 80 80" fill="none" xmlns="http://www.w3.org/2000/svg">
<rect width="80" height="80" rx="40" fill="#0F7098"/>
<path fill-rule="evenodd" clip-rule="evenodd" d="M45.3876 20.9141C41.6508 21.4236 38.4116 23.4661 36.2815 26.656C35.8308 27.331 35.2654 28.4334 35.0135 29.1286C34.8511 29.5769 34.821 29.6114 34.5539 29.6556C34.3662 29.6866 34.027 29.8885 33.5655 30.2438L32.863 30.7847L32.5927 30.6718C32.4439 30.6097 32.3087 30.5453 32.2922 30.5287C32.2756 30.5122 32.2132 30.1265 32.1534 29.6717C31.9458 28.0902 31.6901 27.9065 29.696 27.9065C27.7024 27.9065 27.4344 28.1002 27.2254 29.6915C27.1661 30.1422 27.107 30.5217 27.0938 30.5348C27.0805 30.548 26.9484 30.6095 26.8 30.6715L26.5303 30.7842L25.8054 30.2309C25.1582 29.7368 25.0362 29.6738 24.6665 29.6432C24.0816 29.5947 23.7948 29.7689 22.8067 30.7731C21.8961 31.6985 21.7242 31.9618 21.7242 32.4305C21.7242 32.8764 21.8192 33.0749 22.3771 33.7935L22.8731 34.4325L22.76 34.706C22.6978 34.8565 22.6356 34.9913 22.6219 35.0057C22.6081 35.02 22.2248 35.0805 21.7699 35.1403C20.6581 35.2863 20.3818 35.4399 20.125 36.0545C19.9805 36.4002 19.9522 38.7774 20.0882 39.1362C20.1938 39.4151 20.4477 39.689 20.7429 39.8425C20.9276 39.9385 22.1791 40.1687 22.5525 40.1754C22.5997 40.1762 22.6917 40.3129 22.7571 40.4792L22.8759 40.7816L22.3325 41.4895C21.7545 42.2424 21.651 42.5365 21.7597 43.1159C21.8037 43.3508 21.9995 43.5971 22.7658 44.3815C23.289 44.9171 23.8303 45.4036 23.9686 45.4624C24.2756 45.5932 24.8776 45.602 25.1096 45.4792C25.2034 45.4294 25.5616 45.1703 25.9055 44.9032L26.5307 44.4175L26.8043 44.5416C26.9547 44.6098 27.0842 44.6674 27.092 44.6694C27.0998 44.6714 27.1462 44.9891 27.195 45.3754C27.3094 46.2784 27.4011 46.5729 27.6539 46.8492C27.9755 47.2007 28.2751 47.289 29.1464 47.289H29.9305L29.9322 48.6762C29.9341 50.2289 30.0023 50.5112 30.47 50.9048C30.767 51.1547 31.0425 51.2313 32.0815 51.3528L32.8649 51.4444L32.9999 51.7708C33.0741 51.9503 33.1348 52.1255 33.1348 52.1602C33.1348 52.1949 32.8739 52.5638 32.5549 52.98C31.9266 53.7999 31.7714 54.1831 31.8781 54.6503C31.9816 55.1042 32.202 55.3945 33.1492 56.3251C34.6452 57.795 34.9594 57.8427 36.3216 56.8076L37.1362 56.1885L37.512 56.3236L37.8878 56.4589L37.9801 57.247C38.1022 58.2913 38.1786 58.5662 38.4287 58.8635C38.8259 59.3357 39.0987 59.3996 40.7159 59.3996C42.3567 59.3996 42.6347 59.3308 43.0163 58.8306C43.2218 58.5611 43.2923 58.2601 43.4858 56.8239C43.53 56.4964 43.5572 56.4624 43.8801 56.329C44.2759 56.1654 44.2189 56.1426 45.0793 56.8102C45.6806 57.277 46.1303 57.516 46.4212 57.5235C46.8879 57.5354 47.1833 57.3355 48.2473 56.2883C48.8433 55.7017 49.3797 55.1086 49.4392 54.9702C49.5774 54.6489 49.5776 54.1538 49.4395 53.832C49.3801 53.6936 49.0861 53.2683 48.786 52.8868L48.2404 52.1933L48.3984 51.8195L48.5562 51.4457L49.3449 51.3534C50.4681 51.2221 50.6871 51.1513 51.0295 50.8089C51.4426 50.3957 51.5246 49.9572 51.4888 48.3527C51.4628 47.1909 51.4459 47.0679 51.2708 46.7607C51.1664 46.5777 50.9956 46.372 50.8913 46.3036C50.7026 46.18 50.7048 46.1783 51.2773 45.9868C53.8624 45.1225 56.2855 43.2469 57.859 40.8922C60.7989 36.4926 60.7029 30.563 57.6218 26.246C57.3719 25.8959 56.8158 25.2412 56.386 24.7911C53.5507 21.8221 49.4166 20.3648 45.3876 20.9141ZM49.3476 22.2C54.0612 23.1386 57.6719 26.7644 58.6292 31.5202C58.8761 32.7472 58.8752 34.8407 58.6271 36.0037C57.6204 40.7247 54.062 44.3211 49.4717 45.2565C48.5 45.4545 48.4182 45.4528 48.3181 45.2332C48.2463 45.0756 48.2864 44.9912 48.6385 44.5588L49.0409 44.0645L49.8608 43.838C51.4313 43.4041 53.3753 42.2843 54.4075 41.2191C54.9021 40.7086 54.9499 40.4872 54.6335 40.1709C54.3108 39.8482 54.1142 39.9 53.4991 40.4699C52.8484 41.0727 52.2187 41.5259 51.47 41.9299C50.9104 42.232 49.8117 42.6778 49.6271 42.6778C49.5901 42.6778 49.5348 42.5639 49.5042 42.4246C49.4363 42.1157 47.4911 40.101 47.0658 39.8992C46.8728 39.8076 46.6558 39.7786 46.3366 39.8017C45.9088 39.8327 45.8359 39.8703 45.0888 40.4456C44.3023 41.0514 44.293 41.0559 44.0101 40.9687C43.5341 40.822 43.5233 40.8017 43.3968 39.8164C43.2287 38.5082 43.0061 38.1418 42.2396 37.9126C41.8941 37.8092 39.214 37.832 38.9815 37.9402C38.8767 37.989 38.8101 37.9236 38.6593 37.6239C37.6814 35.681 37.5484 32.8269 38.3339 30.642C39.1227 28.4482 40.7546 26.5641 42.7746 25.5151C44.1781 24.7864 45.4897 24.4677 47.0855 24.4677C48.6545 24.4677 49.9 24.7596 51.2668 25.4475C53.8628 26.7541 55.736 29.2691 56.2321 32.1141C56.4018 33.0875 56.3814 34.6292 56.1862 35.5874C56.0165 36.4201 55.6072 37.5735 55.2875 38.1197C55.1824 38.2993 55.0964 38.5543 55.0964 38.6863C55.0964 39.1255 55.5553 39.3753 55.9621 39.1577C56.3441 38.9533 57.1614 36.8741 57.3997 35.5008C57.5616 34.5678 57.5617 32.8931 57.4 31.9522C56.844 28.7169 54.6962 25.8414 51.7139 24.3395C49.4637 23.2063 46.5126 22.9744 44.0061 23.7339C40.7192 24.7298 38.0383 27.4431 37.0507 30.7731C36.6441 32.1442 36.533 34.0491 36.7754 35.4934C36.9293 36.4097 37.3248 37.6199 37.7412 38.448C38.0944 39.1504 38.094 39.1477 37.9702 40.1129C37.9069 40.6067 37.851 40.8021 37.7733 40.8021C37.6294 40.8021 36.9573 39.7662 36.5311 38.8873C35.5898 36.9469 35.1673 34.6079 35.3945 32.5958C35.7154 29.7533 36.8247 27.4227 38.8 25.4406C40.7353 23.4985 43.2129 22.3185 45.9913 22.0157C46.6611 21.9427 48.5866 22.0485 49.3476 22.2ZM46.6557 27.125C46.5065 27.2741 46.4994 27.3855 46.4994 29.5401V31.799L46.2725 31.8781C46.1479 31.9215 45.8991 32.0896 45.7198 32.2516C45.0658 32.8425 44.8748 33.5996 45.1642 34.4546L45.3304 34.9456L44.5071 35.8614C44.0543 36.365 43.6622 36.8589 43.6358 36.9588C43.5306 37.3563 43.9309 37.749 44.3373 37.647C44.4525 37.6182 44.8883 37.1991 45.4071 36.6186C46.1623 35.7737 46.3056 35.6474 46.4496 35.7001C46.5415 35.7336 46.8452 35.7591 47.1246 35.7565C47.7483 35.7509 48.1504 35.5608 48.5862 35.0656C49.4696 34.062 49.1411 32.486 47.9279 31.9075L47.6717 31.7854V29.583C47.6717 27.4732 47.6649 27.3719 47.5097 27.1746C47.3067 26.9165 46.8884 26.8922 46.6557 27.125ZM30.9051 29.2547C30.9269 29.3514 30.9951 29.8313 31.0567 30.3211C31.1393 30.9776 31.2063 31.2473 31.3116 31.3475C31.5058 31.5324 32.7434 32.0495 32.9817 32.0455C33.0947 32.0435 33.4155 31.8515 33.7601 31.5795C34.0825 31.325 34.3584 31.152 34.3733 31.195C34.3881 31.238 34.3618 31.4943 34.3147 31.7647C33.8939 34.1811 34.3249 37.0244 35.4705 39.3893C35.6041 39.6651 35.6989 39.9053 35.6813 39.923C35.6636 39.9406 35.5781 39.9171 35.4913 39.8706C35.2901 39.7629 34.6957 39.7616 34.4099 39.8682C34.1487 39.9655 32.1612 41.9131 31.987 42.2424C31.8592 42.484 31.8203 43.0705 31.9133 43.3547C31.9599 43.4971 31.9269 43.5372 31.7015 43.6116C31.24 43.7639 31.1745 43.9039 31.0339 45.0388L30.9053 46.0776H29.6949H28.4846L28.3492 45.0302C28.2198 44.0288 28.1023 43.6939 27.8803 43.6939C27.8408 43.6939 27.5126 43.5669 27.1512 43.4116C26.7275 43.2295 26.4311 43.146 26.317 43.1763C26.2196 43.2022 25.8058 43.487 25.3975 43.8091C24.9891 44.1312 24.6029 44.3953 24.5392 44.396C24.3951 44.3976 22.8965 42.9152 22.8965 42.7711C22.8965 42.7132 23.1774 42.3082 23.5207 41.8708C23.8641 41.4335 24.1454 41.0097 24.146 40.929C24.1475 40.7158 23.6059 39.3795 23.4549 39.2236C23.3637 39.1295 23.0423 39.055 22.3494 38.9673C21.8121 38.8993 21.3286 38.8282 21.2748 38.8093C21.2025 38.7839 21.1771 38.4699 21.1771 37.6017C21.1771 36.2383 21.0185 36.4132 22.4139 36.2378C23.3899 36.115 23.5359 36.039 23.6858 35.5758C23.7363 35.4198 23.8607 35.1263 23.9623 34.9235C24.0638 34.7208 24.147 34.4684 24.147 34.3628C24.147 34.2432 23.9107 33.8597 23.5218 33.3478C23.1779 32.8953 22.8965 32.4801 22.8965 32.4251C22.8965 32.2913 24.389 30.7983 24.5227 30.7983C24.5805 30.7983 24.9856 31.0792 25.423 31.4225C26.3138 32.1218 26.4386 32.1563 27.0218 31.8641C27.2245 31.7625 27.5181 31.638 27.6741 31.5876C28.1376 31.4376 28.2015 31.3074 28.3339 30.2438C28.4003 29.7106 28.469 29.2303 28.4867 29.1765C28.5105 29.1042 28.8226 29.0789 29.6921 29.0789C30.845 29.0789 30.8661 29.0819 30.9051 29.2547ZM47.504 33.0198C47.9483 33.2496 48.0453 33.9226 47.6912 34.3188C47.2417 34.8219 46.4501 34.6516 46.258 34.0104C46.0303 33.2505 46.787 32.649 47.504 33.0198ZM29.2652 33.7692C29.1869 33.8557 29.1229 34.0335 29.1229 34.1642C29.1229 34.5322 29.3598 34.7085 29.9528 34.7821C30.9804 34.9095 31.8438 35.5183 32.2618 36.4101C32.4444 36.7996 32.4705 36.9531 32.4705 37.6368C32.4705 38.3787 32.4569 38.4435 32.2027 38.9124C31.6063 40.0124 30.4444 40.6031 29.2572 40.4099C28.3699 40.2654 27.5571 39.6728 27.1532 38.8756C26.9401 38.4551 26.9215 38.3524 26.9215 37.5978C26.9215 36.8535 26.9415 36.7392 27.1364 36.3695C27.2546 36.1452 27.5096 35.7835 27.703 35.5657C28.1071 35.1108 28.1466 34.8689 27.8629 34.5853C27.5907 34.3131 27.331 34.3418 26.9475 34.6865C26.1595 35.3948 25.7101 36.4498 25.7101 37.5918C25.7101 38.7688 26.0985 39.6933 26.9274 40.4893C29.4751 42.9356 33.6865 41.1344 33.681 37.6009C33.6792 36.4727 33.3068 35.576 32.5086 34.7778C31.7421 34.0113 30.8424 33.6181 29.8449 33.6137C29.5044 33.6122 29.3761 33.6466 29.2652 33.7692ZM42.0429 39.1198C42.0955 39.1832 42.2022 39.7331 42.2801 40.3418C42.388 41.1856 42.4557 41.4809 42.5652 41.5854C42.7379 41.7502 44.1696 42.3652 44.3805 42.3652C44.4625 42.3652 44.9355 42.0487 45.4315 41.6618C45.9276 41.275 46.3966 40.9584 46.4738 40.9584C46.6495 40.9584 48.3751 42.6681 48.3751 42.8423C48.3751 42.9126 48.0585 43.3837 47.6717 43.8892C47.236 44.4585 46.9683 44.8799 46.9683 44.9962C46.9683 45.0995 47.0522 45.3499 47.1548 45.5526C47.2575 45.7554 47.3858 46.0695 47.4399 46.2506C47.6112 46.8232 47.7506 46.8948 49.0097 47.0557C49.8918 47.1685 50.1489 47.2286 50.2322 47.3414C50.3788 47.5399 50.3395 49.9216 50.188 50.015C50.1321 50.0496 49.5869 50.1386 48.9766 50.2129C48.1759 50.3103 47.831 50.3844 47.7374 50.4792C47.5294 50.69 46.9472 52.1971 46.9983 52.3926C47.023 52.4872 47.3429 52.9488 47.7091 53.4187C48.0754 53.8885 48.3751 54.33 48.3751 54.3998C48.3751 54.4696 47.9559 54.9408 47.4434 55.4469C46.6522 56.2283 46.4897 56.3553 46.3661 56.2892C46.286 56.2463 45.8534 55.9258 45.4048 55.5769C44.9561 55.228 44.5174 54.9245 44.43 54.9025C44.3395 54.8799 44.0176 54.9797 43.684 55.1338C43.3612 55.2829 43.0035 55.4285 42.8891 55.4571C42.5008 55.5546 42.4297 55.7259 42.274 56.9395C42.1934 57.5676 42.1067 58.1151 42.0814 58.1561C42.0551 58.1987 41.4664 58.2307 40.7096 58.2307C39.1389 58.2307 39.2974 58.3665 39.1128 56.863C38.9941 55.8977 38.8645 55.4953 38.672 55.4953C38.6244 55.4953 38.253 55.3532 37.8465 55.1795C37.3774 54.9791 37.0499 54.882 36.9499 54.9137C36.8632 54.9412 36.3886 55.2768 35.895 55.6593C35.4016 56.042 34.9724 56.355 34.9415 56.355C34.9106 56.355 34.4528 55.9175 33.9243 55.3829C33.264 54.715 32.983 54.379 33.0262 54.309C33.0608 54.253 33.3984 53.8084 33.7763 53.3208C34.1542 52.8333 34.4635 52.3719 34.4635 52.2955C34.4635 52.2191 34.3431 51.8961 34.196 51.5778C34.0489 51.2593 33.9039 50.9006 33.8738 50.7806C33.7896 50.4453 33.5696 50.3572 32.4705 50.2192C30.9663 50.0301 31.1026 50.1839 31.104 48.6779C31.1047 47.9785 31.1337 47.3614 31.1684 47.3067C31.2067 47.2463 31.6901 47.1457 32.3928 47.0519C33.6582 46.8827 33.7722 46.8314 33.9238 46.3612C33.9741 46.2052 34.1178 45.8492 34.2431 45.5701C34.3721 45.2827 34.453 44.9915 34.4297 44.8985C34.407 44.8082 34.0712 44.3198 33.6835 43.8131C33.2957 43.3065 32.9785 42.8735 32.9785 42.8508C32.9785 42.7401 34.8244 40.9584 34.939 40.9584C35.0117 40.9584 35.4532 41.2575 35.9201 41.6232C36.387 41.9888 36.8472 42.3089 36.9428 42.3345C37.0523 42.3639 37.3554 42.28 37.7634 42.1073C38.1192 41.9567 38.4903 41.8098 38.5883 41.7808C38.8942 41.6902 38.9951 41.4127 39.1416 40.2589C39.2368 39.5097 39.3189 39.1244 39.3936 39.0771C39.4546 39.0385 40.0541 39.0064 40.7259 39.0057C41.7081 39.0048 41.966 39.0271 42.0429 39.1198ZM40.2079 44.2452C37.6916 44.5007 35.8513 47.0097 36.3701 49.4773C36.601 50.5756 37.3827 51.822 37.8407 51.822C37.9489 51.822 38.1302 51.7491 38.2434 51.66C38.526 51.4377 38.5194 51.083 38.2258 50.7261C37.8829 50.3093 37.6069 49.7063 37.5045 49.15C37.1891 47.4387 38.4846 45.6602 40.2129 45.4319C41.8316 45.2182 43.2076 46.0505 43.7627 47.5793C43.9116 47.989 43.9339 48.1782 43.9059 48.7907C43.8777 49.404 43.8343 49.596 43.6254 50.0302C43.038 51.2515 41.7199 51.9906 40.3571 51.8629C39.7116 51.8024 39.5187 51.8692 39.4062 52.192C39.309 52.4708 39.4014 52.7143 39.6713 52.8912C39.9985 53.1055 41.2787 53.0882 42.0087 52.8595C43.3981 52.4242 44.5438 51.2378 44.9678 49.7953C45.1276 49.2518 45.1301 48.0912 44.9729 47.4877C44.786 46.7699 44.4048 46.1281 43.8053 45.5218C42.8213 44.5265 41.6235 44.1015 40.2079 44.2452ZM33.1316 45.059C33.1334 45.1005 33.0787 45.2814 33.0102 45.461C32.9108 45.7211 32.8373 45.7971 32.6487 45.8348C32.1436 45.9359 32.1005 45.9129 32.151 45.5696C32.1763 45.3976 32.2173 45.1183 32.2421 44.9488C32.278 44.7044 32.3305 44.6259 32.4961 44.5691C32.6768 44.5072 32.7335 44.5304 32.9167 44.7405C33.0332 44.8741 33.1299 45.0174 33.1316 45.059Z" fill="white"/>
</svg>
