<svg width="80" height="80" viewBox="0 0 80 80" fill="none" xmlns="http://www.w3.org/2000/svg">
<rect width="80" height="80" rx="40" fill="#0F7098"/>
<path fill-rule="evenodd" clip-rule="evenodd" d="M37.4998 20.0518C36.9205 20.2346 36.4886 20.5966 36.1976 21.1432C36.0671 21.3883 36.0357 21.6865 36.0007 23.0066L35.959 24.5784L35.2929 24.8212C34.9265 24.9547 34.3349 25.2009 33.9782 25.3684L33.3296 25.6729L32.2699 24.6255C31.1093 23.4785 30.8309 23.3104 30.0914 23.3104C29.2928 23.3104 28.9813 23.5289 27.1535 25.3723C25.6031 26.9358 25.5123 27.045 25.3773 27.5097C25.0962 28.4772 25.3233 28.9736 26.6818 30.3598L27.6711 31.3692L27.3015 32.1534C27.0983 32.5848 26.857 33.1628 26.7651 33.4378L26.5982 33.938L25.0299 33.9804C23.6325 34.0182 23.4254 34.0424 23.1284 34.202C22.6926 34.4362 22.3865 34.767 22.177 35.2299C22.0193 35.5784 22.0072 35.7714 22.0055 37.9493C22.0035 40.4855 22.0337 40.7041 22.4655 41.2703C22.7135 41.5956 23.4211 41.9816 23.7696 41.9816H24.0032V41.3147C24.0032 40.7689 23.9799 40.6479 23.8745 40.6479C23.8037 40.6479 23.6537 40.5558 23.5413 40.4433L23.3367 40.2387V38.0001C23.3367 35.629 23.3217 35.7388 23.6941 35.3797C23.7037 35.3704 24.5869 35.3422 25.6568 35.3172L27.602 35.2716L27.8699 34.3964C28.1769 33.3937 28.5188 32.5925 29.0092 31.7268L29.3517 31.122L27.9938 29.7617C26.7451 28.5107 26.636 28.3774 26.636 28.1031C26.636 27.8271 26.7537 27.6869 28.214 26.2244C30.2716 24.1638 29.9745 24.1841 31.7911 25.9807L33.1428 27.3174L34.1063 26.811C35.1383 26.2687 36.083 25.8951 36.8546 25.724L37.3337 25.6178L37.3364 23.6931C37.3391 21.6759 37.351 21.6056 37.724 21.4068C37.9701 21.2756 41.9912 21.2718 42.2779 21.4024C42.6292 21.5626 42.6659 21.7859 42.6659 23.7635V25.6257L42.9723 25.6832C43.6478 25.81 44.8462 26.2717 45.8556 26.7941L46.9209 27.3452L48.2728 25.9946C49.5041 24.7645 49.6506 24.644 49.9161 24.644C50.1834 24.644 50.3381 24.7747 51.7856 26.2244C53.2459 27.6869 53.3636 27.8271 53.3636 28.1031C53.3636 28.3774 53.2544 28.5108 52.0052 29.7623L50.6468 31.1232L51.0238 31.7804C51.4796 32.5748 51.9218 33.6305 52.1937 34.5732L52.3951 35.2716L54.2999 35.3134C55.3475 35.3363 56.2652 35.3852 56.3392 35.4221C56.626 35.5651 56.6629 35.8672 56.6629 38.0717V40.2387L56.4583 40.4433C56.3459 40.5558 56.1959 40.6479 56.1251 40.6479C56.0197 40.6479 55.9964 40.7689 55.9964 41.3147V41.9816L56.2255 41.9797C56.5705 41.977 57.0983 41.7063 57.435 41.3595C57.9566 40.8221 57.9962 40.5805 57.9941 37.9449C57.9924 35.7714 57.9802 35.5784 57.8225 35.2299C57.6131 34.767 57.307 34.4362 56.8712 34.202C56.5742 34.0424 56.3671 34.0182 54.9697 33.9804L53.4014 33.938L53.2345 33.4378C53.1426 33.1628 52.9013 32.5848 52.6981 32.1534L52.3285 31.3692L53.3178 30.3598C54.6763 28.9736 54.9034 28.4772 54.6223 27.5097C54.4873 27.045 54.3965 26.9358 52.8461 25.3723C51.0183 23.5289 50.7068 23.3104 49.9082 23.3104C49.1687 23.3104 48.8904 23.4784 47.7293 24.626L46.6689 25.6738L45.938 25.3267C45.5359 25.1358 44.9446 24.8914 44.6238 24.7835L44.0406 24.5873L43.9989 23.0111C43.9533 21.2843 43.8898 21.0393 43.3609 20.5484C42.7968 20.0249 42.7641 20.0194 40.1248 20.0019C38.7959 19.9931 37.6146 20.0156 37.4998 20.0518ZM38.7917 28.7389C36.3263 29.0471 33.8603 30.5285 32.4268 32.5626C31.4063 34.0106 30.8473 35.5469 30.7006 37.3074L30.6445 37.9806H31.323H32.0015V37.6581C32.0015 37.4807 32.0564 37.0213 32.1236 36.637C32.693 33.3764 35.1519 30.8539 38.4585 30.1382C39.1026 29.9988 40.897 29.9988 41.5411 30.1382C43.0467 30.464 44.3892 31.1589 45.4735 32.1738C46.8632 33.4743 47.8094 35.4289 47.9674 37.3259L48.0221 37.9806H48.6886H49.3551L49.299 37.3074C48.8511 31.9348 44.1162 28.0736 38.7917 28.7389ZM39.2091 35.4112C38.0784 35.6269 36.8986 36.5502 36.405 37.6055C35.4059 39.7415 36.4533 42.2951 38.6528 43.0856C40.5308 43.7605 42.6623 42.8971 43.5507 41.1016C44.3336 39.5193 44.0433 37.7543 42.7971 36.5212C41.7987 35.5332 40.5671 35.1522 39.2091 35.4112ZM41.1174 36.9274C41.6649 37.1817 42.1333 37.6554 42.4064 38.2307C42.7114 38.8729 42.717 39.8339 42.4195 40.4395C41.5988 42.1103 39.4722 42.5034 38.1619 41.2265C37.5727 40.6523 37.3781 40.189 37.3767 39.3559C37.3757 38.808 37.4143 38.6073 37.5931 38.2307C38.2365 36.8753 39.7779 36.3053 41.1174 36.9274ZM27.8782 38.0785C26.7475 38.2943 25.5677 39.2175 25.0741 40.2728C24.075 42.4088 25.1224 44.9625 27.3219 45.7529C29.1999 46.4278 31.3314 45.5644 32.2198 43.7689C33.0027 42.1866 32.7124 40.4216 31.4662 39.1885C30.4678 38.2005 29.2362 37.8195 27.8782 38.0785ZM50.54 38.0785C49.4093 38.2943 48.2295 39.2175 47.7359 40.2728C46.7368 42.4088 47.7842 44.9625 49.9836 45.7529C51.8617 46.4278 53.9932 45.5644 54.8816 43.7689C55.6645 42.1866 55.3742 40.4216 54.128 39.1885C53.1296 38.2005 51.898 37.8195 50.54 38.0785ZM29.7865 39.5947C30.334 39.849 30.8024 40.3227 31.0756 40.898C31.3805 41.5402 31.3862 42.5012 31.0886 43.1068C30.2679 44.7777 28.1413 45.1707 26.831 43.8939C26.2418 43.3196 26.0472 42.8563 26.0458 42.0232C26.0448 41.4754 26.0834 41.2746 26.2623 40.898C26.9056 39.5426 28.447 38.9726 29.7865 39.5947ZM52.4483 39.5947C52.9958 39.849 53.4642 40.3227 53.7373 40.898C54.0423 41.5402 54.0479 42.5012 53.7504 43.1068C52.9297 44.7777 50.8031 45.1707 49.4928 43.8939C48.9035 43.3196 48.709 42.8563 48.7076 42.0232C48.7066 41.4754 48.7452 41.2746 48.924 40.898C49.5674 39.5426 51.1088 38.9726 52.4483 39.5947ZM36.4064 44.0682C34.9935 44.2855 33.6866 45.033 32.7489 46.1602L32.3216 46.6739L29.0164 46.6579C25.4553 46.6408 24.7685 46.6969 23.8332 47.081C21.8709 47.8869 20.5087 49.5266 20.1221 51.5485C19.9544 52.4256 19.9611 55.667 20.1322 56.3931C20.4268 57.6432 21.3432 58.8306 22.4696 59.4213C23.5278 59.9762 23.6178 59.9859 27.6866 59.9859H31.335V59.3191V58.6523H28.3356H25.3363V54.9847V51.3172H24.6698H24.0032V54.952V58.587L23.7741 58.5314C23.003 58.3443 22.0306 57.5359 21.6863 56.7959C21.3653 56.106 21.3197 55.67 21.3552 53.6263C21.387 51.8001 21.4006 51.6612 21.6004 51.1355C22.194 49.5739 23.4922 48.4387 25.0658 48.105C25.4933 48.0144 26.3531 47.9856 28.6578 47.9844L31.6877 47.983L31.633 48.1706C31.3447 49.1595 31.3274 49.4876 31.3532 53.4761C31.3772 57.1964 31.3891 57.4685 31.5426 57.8426C31.9184 58.7577 32.7525 59.5386 33.6557 59.8206C34.0842 59.9543 34.4222 59.9859 35.4262 59.9859H36.6672V54.6513V49.3167H36.0007H35.3341V53.9845V58.6523H34.7673C33.7905 58.6523 33.0823 58.1642 32.7828 57.2847C32.6785 56.9788 32.6631 56.2966 32.6852 52.9731L32.7114 49.0249L32.9272 48.4682C33.0458 48.1621 33.2639 47.723 33.4118 47.4924C33.7936 46.8971 34.6506 46.1256 35.2663 45.8231C36.2433 45.343 36.6719 45.3011 40.2914 45.3328C43.4328 45.3603 43.5587 45.3676 44.0823 45.5531C44.8273 45.8172 45.2907 46.1002 45.8513 46.634C46.4225 47.1779 46.781 47.7164 47.0724 48.4682L47.2882 49.0249L47.3144 52.97C47.3437 57.3905 47.3378 57.4459 46.7722 58.0285C46.3431 58.4705 45.9019 58.6483 45.2278 58.6504L44.6655 58.6523V53.9845V49.3167H43.9989H43.3324V54.6583V60L44.7279 59.9683C46.4797 59.9286 46.8614 59.8057 47.6272 59.0347C48.1608 58.4975 48.4447 57.9921 48.5877 57.325C48.644 57.0622 48.6644 55.5066 48.6453 52.9299C48.6194 49.452 48.5975 48.8882 48.4744 48.5248C48.3967 48.2956 48.3328 48.08 48.3323 48.0455C48.3318 48.0111 49.6905 47.9837 51.3515 47.9844C53.6477 47.9856 54.5064 48.0144 54.9338 48.105C56.529 48.4433 57.888 49.6539 58.4282 51.218C58.6103 51.7451 58.6208 51.8944 58.6208 53.9471V56.1186L58.307 56.7537C57.8648 57.649 57.0722 58.3258 56.2255 58.5314L55.9964 58.587V54.952V51.3172H55.3298H54.6633V54.9847V58.6523H51.664H48.6646V59.323V59.9937L52.5179 59.969C56.3538 59.9443 56.3735 59.9433 56.8712 59.7457C57.5628 59.471 58.4266 58.8846 58.8265 58.4182C59.296 57.8707 59.7327 57.0035 59.8733 56.3398C60.0472 55.5187 60.0405 52.3615 59.8629 51.5018C59.4419 49.462 58.1227 47.8845 56.1664 47.081C55.2311 46.6969 54.5443 46.6408 50.9832 46.6579L47.678 46.6739L47.2599 46.1712C46.5006 45.2584 45.6995 44.7194 44.4633 44.2897L43.7073 44.0269L40.2914 44.0115C38.4126 44.003 36.6643 44.0285 36.4064 44.0682ZM37.3337 59.3191V59.9859H39.9998H42.6659V59.3191V58.6523H39.9998H37.3337V59.3191Z" fill="white"/>
</svg>
