<svg width="80" height="80" viewBox="0 0 80 80" fill="none" xmlns="http://www.w3.org/2000/svg">
<rect width="80" height="80" rx="40" fill="#0F7098"/>
<path fill-rule="evenodd" clip-rule="evenodd" d="M48.5855 20.198C48.4229 20.3605 48.3875 20.4758 48.3875 20.8431V21.2903L44.4158 21.2964L40.444 21.3024L37.4198 22.3246L34.3956 23.3468L32.3635 27.379L30.3314 31.4113L30.3272 33.125L30.323 34.8387H29.5384H28.7538L26.6352 36.9573L24.5166 39.076V42.4412V45.8064H23.0945C21.3749 45.8064 21.1504 45.8607 20.6025 46.4085C20.0374 46.9737 19.8745 47.5852 20.0941 48.3179C20.2145 48.7199 20.6575 49.2359 21.0574 49.4399C21.2301 49.528 21.3714 49.6377 21.3714 49.6836C21.3714 49.7296 21.6436 51.9405 21.9762 54.5968C22.3089 57.2531 22.5811 59.4663 22.5811 59.5152C22.5811 59.5641 22.6702 59.6931 22.7791 59.802L22.977 60H34.8391H46.7013L46.8992 59.802C47.0081 59.6931 47.0972 59.5641 47.0972 59.5152C47.0972 59.4663 47.3694 57.2531 47.702 54.5968C48.0347 51.9405 48.3069 49.7296 48.3069 49.6836C48.3069 49.6377 48.4482 49.528 48.6208 49.4399C49.0208 49.2359 49.4638 48.7199 49.5842 48.3179C49.7914 47.6265 49.6451 47.0152 49.1374 46.4506C48.622 45.8774 48.3424 45.8064 46.599 45.8064H45.1617V40.5206V35.2346L44.9637 35.0367C44.7687 34.8415 44.7457 34.8387 43.3508 34.8387H41.9359V34.1298V33.4208L43.1254 32.9091C44.575 32.2855 44.8568 32.0979 45.4578 31.357C46.1078 30.5556 46.4691 30.3805 47.5609 30.3371L48.3875 30.3043V30.7606C48.3875 31.1377 48.422 31.2514 48.5855 31.4149L48.7834 31.6129H54.194H59.6045L59.8024 31.4149L60.0004 31.217V25.8065V20.3959L59.8024 20.198L59.6045 20H54.194H48.7834L48.5855 20.198ZM50.9682 25.8065V30.3226H50.323H49.6778V25.8065V21.2903H50.323H50.9682V25.8065ZM58.7101 25.8065V30.3226H55.4843H52.2585V25.8065V21.2903H55.4843H58.7101V25.8065ZM48.3875 25.7965V29.0123L47.4353 29.0463C46.545 29.0781 46.4435 29.099 45.8762 29.3685C45.4532 29.5694 45.1492 29.7862 44.8728 30.0844C43.7746 31.2689 43.9106 31.1817 41.6937 32.1244L39.6375 32.9987L37.0943 35.5316C34.7899 37.8267 34.5262 38.0645 34.2857 38.0645C34.0974 38.0645 33.9488 37.9931 33.7745 37.8187C33.5617 37.606 33.5343 37.5305 33.5709 37.2578C33.6076 36.984 33.9048 36.6094 35.8391 34.398C37.5248 32.4706 38.0649 31.8025 38.0649 31.6444C38.0649 31.5207 37.67 30.7785 37.0972 29.8255L36.1295 28.2155V27.6561V27.0968H35.4843H34.8391V27.8322C34.8391 28.534 34.8524 28.5894 35.129 29.0447C35.325 29.3674 35.3942 29.5535 35.3429 29.6198C35.3012 29.6736 34.7353 30.3841 34.0853 31.1986L32.9037 32.6794V33.7591V34.8387H32.2585H31.6133L31.6178 33.2863L31.6221 31.7339L33.4607 28.0685L35.2992 24.4031L37.9926 23.4982L40.6859 22.5934L44.5367 22.587L48.3875 22.5806V25.7965ZM36.4098 31.1734L36.6248 31.5402L36.115 32.1228C35.8347 32.4432 35.2968 33.0602 34.9198 33.4938L34.2343 34.2822L34.2105 33.709L34.1867 33.1359L35.1379 31.9408C35.6611 31.2835 36.1129 30.7594 36.142 30.7761C36.1711 30.7928 36.2916 30.9716 36.4098 31.1734ZM40.6456 34.3952V34.8387L40.1416 34.8371L39.6375 34.8355L40.0941 34.3935C40.3453 34.1505 40.5721 33.9516 40.5982 33.9516C40.6242 33.9516 40.6456 34.1512 40.6456 34.3952ZM32.5385 36.2702C32.2199 37.0216 32.1865 37.4213 32.392 38.0245C32.6455 38.7684 33.4754 39.3548 34.2746 39.3548C35.0111 39.3548 35.2716 39.1788 36.8597 37.6086L38.3562 36.129H41.1137H43.8714V40.9677V45.8064H34.8391H25.8069V42.9032V40H27.5444C29.8654 40 29.6778 40.1876 29.6778 37.8665V36.129H31.1381C32.4978 36.129 32.5942 36.1387 32.5385 36.2702ZM28.3875 37.9032V38.7097H27.5624H26.7374L27.5407 37.9032C27.9826 37.4597 28.3539 37.0968 28.3658 37.0968C28.3778 37.0968 28.3875 37.4597 28.3875 37.9032ZM27.0972 41.2903V41.9355H34.8391H42.5811V41.2903V40.6452H34.8391H27.0972V41.2903ZM28.3875 43.871V44.5161H34.8391H41.2908V43.871V43.2258H34.8391H28.3875V43.871ZM48.1895 47.2948C48.4515 47.5566 48.4515 47.9273 48.1895 48.1891L47.9916 48.3871H34.8391H21.6866L21.4887 48.1891C21.3639 48.0644 21.2907 47.899 21.2907 47.7419C21.2907 47.5848 21.3639 47.4195 21.4887 47.2948L21.6866 47.0968H34.8391H47.9916L48.1895 47.2948ZM46.9789 49.9395C46.9358 50.1914 45.8875 58.5707 45.8875 58.6641C45.8875 58.6892 40.9157 58.7097 34.8391 58.7097C28.7625 58.7097 23.7907 58.6892 23.7907 58.6641C23.7907 58.5707 22.7425 50.1914 22.6994 49.9395L22.6544 49.6774H34.8391H47.0239L46.9789 49.9395ZM27.6478 50.9599C27.3962 50.9869 27.1747 51.0269 27.1556 51.0489C27.127 51.0816 27.7357 57.4307 27.7715 57.4728C27.797 57.5028 28.9646 57.353 29.0028 57.3148C29.0413 57.2763 28.5273 51.864 28.421 51.1895C28.3869 50.9731 28.3352 50.8905 28.2393 50.8989C28.1656 50.9055 27.8994 50.9329 27.6478 50.9599ZM41.2886 51.0446C41.2874 51.1132 41.1451 52.5484 40.9724 54.2339C40.7996 55.9194 40.6827 57.321 40.7124 57.3485C40.7422 57.3762 41.0262 57.4214 41.3437 57.4493L41.9208 57.4998L41.9696 57.1168C42.1096 56.0182 42.5831 51.1042 42.552 51.0731C42.532 51.0531 42.2401 51.0105 41.9032 50.9783C41.3795 50.9282 41.2904 50.9378 41.2886 51.0446ZM34.194 54.1935V57.4194H34.8391H35.4843V54.1935V50.9677H34.8391H34.194V54.1935Z" fill="white"/>
</svg>
