<svg width="9" height="5" viewBox="0 0 9 5" fill="none" xmlns="http://www.w3.org/2000/svg">
<path d="M2.40161 1.45036L1.09862 0.18322C1.03885 0.125132 0.967912 0.0790538 0.889834 0.047617C0.811747 0.0161801 0.728066 0 0.643556 0C0.472873 0 0.309185 0.0659063 0.188495 0.18322C0.128733 0.241308 0.0813324 0.310267 0.0489856 0.386163C0.0166472 0.462058 0 0.543402 0 0.625551C0 0.707699 0.0166472 0.789044 0.0489856 0.864939C0.0813324 0.940834 0.128733 1.00979 0.188495 1.06788L4.04494 4.81645C4.10464 4.87463 4.17557 4.9208 4.25365 4.95229C4.33174 4.98379 4.41546 5 4.5 5C4.58454 5 4.66826 4.98379 4.74635 4.95229C4.82443 4.9208 4.89536 4.87463 4.95506 4.81645L8.8115 1.06788C8.87127 1.00979 8.91867 0.940834 8.95101 0.864939C8.98335 0.789044 9 0.707699 9 0.625551C9 0.543402 8.98335 0.462058 8.95101 0.386163C8.91867 0.310267 8.87127 0.241308 8.8115 0.18322C8.75175 0.125132 8.6808 0.0790538 8.60272 0.047617C8.52464 0.0161801 8.44096 0 8.35644 0C8.27193 0 8.18825 0.0161801 8.11017 0.047617C8.03209 0.0790538 7.96115 0.125132 7.90138 0.18322L6.59756 1.45117L4.5 3.5004L2.40161 1.45036Z" fill="white"/>
</svg>
