<svg width="231" height="60" viewBox="0 0 231 60" fill="none" xmlns="http://www.w3.org/2000/svg">
<g clip-path="url(#clip0_0_503)">
<path d="M26.2094 10.1248C25.7647 9.86447 25.0398 9.86447 24.595 10.1182L10.095 18.4604C9.65022 18.7174 9.65352 19.1292 10.0983 19.3829L11.9269 20.4075C12.3749 20.6579 13.1031 20.6514 13.5479 20.3944L24.941 13.7885C25.3858 13.5315 26.1172 13.5249 26.5653 13.772L28.0479 14.5957C28.496 14.8461 28.5026 15.2645 28.0611 15.5248L16.7997 22.1867C16.3583 22.447 16.3583 22.8753 16.803 23.1323L24.5291 27.6559C24.9706 27.9162 25.6988 27.9162 26.1403 27.6559L40.3701 19.3302C40.8116 19.0699 40.8116 18.6449 40.3701 18.3879L26.2094 10.1248ZM25.9294 23.9131C25.4879 24.1767 24.7664 24.1701 24.3282 23.9032L22.7401 22.9379C22.3019 22.671 22.3052 22.2427 22.75 21.9857L30.6013 17.4423C31.0461 17.1853 31.7808 17.1688 32.2388 17.4061L33.9026 18.2726C34.3573 18.5098 34.3704 18.9183 33.9257 19.1786L25.9294 23.9131Z" fill="white"/>
<path d="M8.57282 22.1076C8.13133 21.844 7.77221 22.045 7.77221 22.559V25.6263C7.77221 26.1403 8.13133 26.7795 8.56953 27.0464L18.8556 33.2964C19.2938 33.5633 19.6529 34.2025 19.6529 34.7132V36.2287C19.6529 36.7427 19.2905 36.9503 18.8457 36.6933L8.2137 30.5058C7.76891 30.2455 7.40649 30.4564 7.40649 30.9704V40.5942C7.40649 41.1082 7.7755 41.7276 8.23017 41.9714L22.5786 49.6777C23.03 49.9216 23.4023 49.7008 23.4023 49.1868V31.9753C23.4023 31.4613 23.0432 30.8254 22.6017 30.5585L8.57282 22.1076ZM19.9363 43.4376C19.9363 43.9515 19.5673 44.1723 19.1159 43.9252L11.1954 39.6322C10.744 39.3884 10.375 38.7657 10.375 38.2517V36.7691C10.375 36.2551 10.744 36.0376 11.1954 36.2814L19.1159 40.5745C19.5673 40.8183 19.9363 41.4377 19.9363 41.9516V43.4376Z" fill="white"/>
<path d="M27.8634 30.4399C27.4153 30.6936 27.0496 31.3196 27.0496 31.8336V48.9858C27.0496 49.4998 27.4054 49.6975 27.8403 49.424L30.0939 48.004C30.5288 47.7305 30.8846 47.0848 30.8846 46.5708V40.4789C30.8846 39.9649 31.2569 39.3488 31.7083 39.1083L38.2615 35.6192C38.7161 35.3787 39.0851 35.5994 39.0851 36.1134V41.5859C39.0851 42.0999 39.4509 42.314 39.8989 42.0636L42.0504 40.8644C42.4985 40.614 42.8642 39.988 42.8642 39.474V22.839C42.8642 22.325 42.4952 22.1076 42.0471 22.3547L40.2119 23.3596C39.7606 23.6067 39.3948 24.2294 39.3948 24.7433V30.318C39.3948 30.832 39.0258 31.4514 38.5745 31.6985L31.5996 35.4808C31.1482 35.7246 30.7792 35.5072 30.7792 34.9932V29.7282C30.7792 29.2143 30.4135 29.0001 29.9654 29.2538L27.8634 30.4399Z" fill="white"/>
<path d="M25.0695 0L0 15.1293V46.9167L25.1848 60.0033L51.1998 45.266V15.6664L25.0695 0ZM47.4537 43.0751L25.1057 55.7366L3.73291 44.6565V17.2379L25.0793 4.36549L47.4537 17.7914V43.0751Z" fill="#1FA1DB"/>
<path d="M80.9643 22.7764C78.2824 22.7764 76.4505 23.3233 74.5528 24.1503L75.6137 27.1946C77.1523 26.5521 78.5624 26.1436 80.4536 26.1436C83.1816 26.1436 84.6642 27.4252 84.6642 29.8271V30.2488C83.3463 29.8271 81.9922 29.5371 80.1043 29.5371C75.9761 29.5371 73.0866 31.3327 73.0866 34.98V35.0492C73.0866 38.4526 75.9431 40.2713 79.1159 40.2713C81.7155 40.2713 83.4781 39.1873 84.6313 37.8003V39.9221H88.4103V29.8864C88.4103 27.6822 87.8403 25.8866 86.5916 24.6642C85.3924 23.4386 83.5045 22.7764 80.9643 22.7764ZM84.7169 33.84C84.7169 35.9849 82.7599 37.4543 80.1933 37.4543C78.3384 37.4543 76.8953 36.5219 76.8953 34.8877V34.8284C76.8953 33.069 78.3746 32.0082 80.872 32.0082C82.4106 32.0082 83.7285 32.3014 84.7202 32.6737V33.84H84.7169Z" fill="white"/>
<path d="M105.401 22.6479C102.765 22.6479 101.194 24.0251 100.107 25.5967V16.5132H96.1891V39.9254H100.107V30.3642C100.107 27.7416 101.668 26.1667 103.919 26.1667C106.228 26.1667 107.546 27.6823 107.546 30.3048V39.9254H111.417V29.1187C111.417 25.2112 109.213 22.6479 105.401 22.6479Z" fill="white"/>
<path d="M126.013 22.7764C123.308 22.7764 121.489 23.3233 119.601 24.1503L120.649 27.1946C122.188 26.5521 123.598 26.1436 125.499 26.1436C128.217 26.1436 129.696 27.4252 129.696 29.8271V30.2488C128.378 29.8271 127.037 29.5371 125.136 29.5371C120.998 29.5371 118.119 31.3327 118.119 34.98V35.0492C118.119 38.4526 120.975 40.2713 124.148 40.2713C126.748 40.2713 128.51 39.1873 129.663 37.8003V39.9221H133.452V29.8864C133.452 27.6822 132.869 25.8866 131.62 24.6642C130.434 23.4386 128.543 22.7764 126.013 22.7764ZM129.759 33.84C129.759 35.9849 127.812 37.4543 125.245 37.4543C123.38 37.4543 121.934 36.5219 121.934 34.8877V34.8284C121.934 33.069 123.413 32.0082 125.911 32.0082C127.449 32.0082 128.767 32.3014 129.759 32.6737V33.84Z" fill="white"/>
<path d="M155.748 23.3232C153.497 23.3232 151.738 23.8932 149.942 24.7235L150.512 26.1106C152.015 25.3429 153.659 24.7927 155.642 24.7927C159.013 24.7927 161.029 26.496 161.029 29.7941V30.5057C159.454 30.084 157.892 29.7941 155.606 29.7941C151.385 29.7941 148.46 31.7182 148.46 35.1216V35.1809C148.46 38.5745 151.735 40.3108 154.779 40.3108C157.892 40.3108 159.909 38.7721 161.029 37.1973V39.9253H162.568V29.7348C162.568 27.7052 161.998 26.2028 160.901 25.1189C159.711 23.9295 157.948 23.3232 155.748 23.3232ZM161.062 33.8037C161.062 36.7756 158.205 38.8282 154.871 38.8282C152.377 38.8282 150.127 37.4543 150.127 35.0854V35.0162C150.127 32.7428 152.051 31.2042 155.514 31.2042C157.86 31.2042 159.688 31.5897 161.065 31.9389V33.8037H161.062Z" fill="white"/>
<path d="M179.684 23.1816C176.442 23.1816 174.356 25.0827 172.956 27.2275V23.5803H171.381V45.0585H172.956V36.4066C174.297 38.4592 176.409 40.3141 179.684 40.3141C183.624 40.3141 187.637 37.0721 187.637 31.7578V31.6886C187.634 26.3643 183.624 23.1816 179.684 23.1816ZM185.934 31.8105C185.934 36.2056 183.077 38.8052 179.522 38.8052C176.129 38.8052 172.854 35.9849 172.854 31.7874V31.7182C172.854 27.5438 176.129 24.7005 179.522 24.7005C182.962 24.7005 185.934 27.4516 185.934 31.7545V31.8105Z" fill="white"/>
<path d="M204.005 23.1816C200.763 23.1816 198.678 25.0827 197.278 27.2275V23.5803H195.703V45.0585H197.278V36.4066C198.618 38.4592 200.73 40.3141 204.005 40.3141C207.946 40.3141 211.959 37.0721 211.959 31.7578V31.6886C211.955 26.3643 207.946 23.1816 204.005 23.1816ZM210.255 31.8105C210.255 36.2056 207.399 38.8052 203.844 38.8052C200.45 38.8052 197.175 35.9849 197.175 31.7874V31.7182C197.175 27.5438 200.45 24.7005 203.844 24.7005C207.284 24.7005 210.255 27.4516 210.255 31.7545V31.8105Z" fill="white"/>
<path d="M225.586 30.8189C223.243 30.1435 221.026 29.478 221.026 27.6461V27.5769C221.026 25.9461 222.508 24.7204 224.745 24.7204C226.472 24.7204 228.268 25.3728 229.783 26.3645L230.61 25.0466C228.979 23.9495 226.762 23.251 224.815 23.251C221.632 23.251 219.428 25.1388 219.428 27.7746V27.8339C219.428 30.7596 222.367 31.5537 225.035 32.3246C227.309 32.9638 229.361 33.6754 229.361 35.5996V35.6589C229.361 37.5467 227.635 38.7724 225.421 38.7724C223.335 38.7724 221.339 38.0047 219.543 36.6275L218.621 37.8762C220.347 39.2863 222.947 40.255 225.325 40.255C228.462 40.255 230.969 38.3902 230.969 35.4744V35.4052C230.972 32.5223 228.211 31.5537 225.586 30.8189Z" fill="white"/>
</g>
<defs>
<clipPath id="clip0_0_503">
<rect width="230.972" height="60" fill="white"/>
</clipPath>
</defs>
</svg>
