<svg width="40" height="40" viewBox="0 0 40 40" fill="none" xmlns="http://www.w3.org/2000/svg">
<rect width="40" height="40" rx="20" fill="white" fill-opacity="0.1"/>
<path fill-rule="evenodd" clip-rule="evenodd" d="M18.5717 18.2268H21.3573V19.6143C21.7585 18.8163 22.7875 18.0993 24.3333 18.0993C27.2965 18.0993 28 19.6878 28 22.6023V28H25V23.266C25 21.6062 24.5988 20.6702 23.5773 20.6702C22.1605 20.6702 21.5717 21.679 21.5717 23.2653V28H18.5717V18.2268ZM13.4275 27.8725H16.4275V18.0993H13.4275V27.8725ZM16.8573 14.9125C16.8574 15.164 16.8075 15.4129 16.7105 15.6449C16.6136 15.877 16.4715 16.0874 16.2925 16.264C15.9298 16.6245 15.4389 16.8262 14.9275 16.825C14.417 16.8247 13.9272 16.6234 13.564 16.2648C13.3857 16.0875 13.244 15.8769 13.1473 15.6448C13.0505 15.4128 13.0004 15.1639 13 14.9125C13 14.4048 13.2025 13.9188 13.5648 13.5603C13.9277 13.2011 14.4177 12.9998 14.9283 13C15.4397 13 15.9302 13.2018 16.2925 13.5603C16.654 13.9188 16.8573 14.4048 16.8573 14.9125Z" fill="#1FA1DB"/>
</svg>
