<svg width="23" height="30" viewBox="0 0 23 30" fill="none" xmlns="http://www.w3.org/2000/svg">
<path d="M11.5 17.1429C10.4661 17.1429 9.4555 16.8287 8.59588 16.24C7.73626 15.6514 7.06626 14.8147 6.67063 13.8358C6.27499 12.8569 6.17147 11.7798 6.37316 10.7406C6.57486 9.70141 7.07271 8.74685 7.80375 7.99764C8.5348 7.24844 9.46621 6.73822 10.4802 6.53151C11.4942 6.3248 12.5452 6.43089 13.5004 6.83636C14.4555 7.24183 15.2719 7.92847 15.8463 8.80945C16.4207 9.69043 16.7273 10.7262 16.7273 11.7857C16.7256 13.206 16.1743 14.5676 15.1944 15.5719C14.2145 16.5762 12.8858 17.1412 11.5 17.1429ZM11.5 8.57143C10.8797 8.57143 10.2733 8.75995 9.75752 9.11314C9.24175 9.46633 8.83976 9.96833 8.60237 10.5557C8.36499 11.143 8.30288 11.7893 8.42389 12.4128C8.54491 13.0363 8.84362 13.609 9.28225 14.0586C9.72088 14.5081 10.2797 14.8142 10.8881 14.9382C11.4965 15.0623 12.1271 14.9986 12.7002 14.7553C13.2733 14.512 13.7632 14.1001 14.1078 13.5715C14.4524 13.0429 14.6364 12.4214 14.6364 11.7857C14.6355 10.9335 14.3048 10.1164 13.7168 9.51381C13.1288 8.9112 12.3316 8.57228 11.5 8.57143Z" fill="#8C8C8C"/>
<path d="M11.5 30L2.68055 19.3404C2.55801 19.1803 2.43673 19.0192 2.31674 18.8571C0.810218 16.8233 -0.00363942 14.3392 1.22348e-05 11.7857C1.22348e-05 8.65995 1.21161 5.66221 3.36828 3.45196C5.52495 1.24171 8.45001 0 11.5 0C14.55 0 17.4751 1.24171 19.6317 3.45196C21.7884 5.66221 23 8.65995 23 11.7857C23.0036 14.338 22.1901 16.8211 20.6843 18.8539L20.6833 18.8571C20.6833 18.8571 20.3696 19.2793 20.3226 19.3361L11.5 30ZM3.98528 17.5661C3.98737 17.5661 4.22992 17.8961 4.28533 17.9668L11.5 26.6871L18.7241 17.955C18.7701 17.8961 19.0147 17.5639 19.0158 17.5629C20.2464 15.9012 20.9115 13.8718 20.9091 11.7857C20.9091 9.22827 19.9178 6.77557 18.1532 4.96718C16.3887 3.1588 13.9954 2.14286 11.5 2.14286C9.00456 2.14286 6.61132 3.1588 4.84678 4.96718C3.08223 6.77557 2.09092 9.22827 2.09092 11.7857C2.08873 13.8731 2.7535 15.9037 3.98528 17.5661Z" fill="#8C8C8C"/>
</svg>
