<svg width="270" height="70" viewBox="0 0 270 70" fill="none" xmlns="http://www.w3.org/2000/svg">
<g clip-path="url(#clip0_0_418)">
<path d="M30.5777 11.8122C30.0588 11.5086 29.2131 11.5086 28.6942 11.8045L11.7775 21.5371C11.2586 21.8369 11.2625 22.3174 11.7814 22.6134L13.9147 23.8088C14.4375 24.1009 15.2869 24.0933 15.8059 23.7934L29.0978 16.0866C29.6167 15.7867 30.4701 15.779 30.9928 16.0673L32.7226 17.0283C33.2453 17.3204 33.253 17.8086 32.7379 18.1123L19.5997 25.8845C19.0847 26.1881 19.0847 26.6878 19.6036 26.9877L28.6173 32.2652C29.1324 32.5689 29.9819 32.5689 30.497 32.2652L47.0985 22.5519C47.6136 22.2482 47.6136 21.7524 47.0985 21.4525L30.5777 11.8122ZM30.251 27.8986C29.7359 28.2062 28.8941 28.1985 28.3829 27.8871L26.5301 26.7609C26.0189 26.4495 26.0228 25.9498 26.5417 25.65L35.7015 20.3494C36.2204 20.0495 37.0776 20.0303 37.6119 20.3071L39.553 21.318C40.0835 21.5948 40.0989 22.0714 39.58 22.3751L30.251 27.8986Z" fill="white"/>
<path d="M10.0016 25.7922C9.48657 25.4847 9.0676 25.7192 9.0676 26.3188V29.8974C9.0676 30.497 9.48657 31.2427 9.9978 31.5541L21.9982 38.8458C22.5095 39.1572 22.9284 39.9029 22.9284 40.4987V42.2668C22.9284 42.8665 22.5056 43.1086 21.9867 42.8088L9.58267 35.5901C9.06375 35.2864 8.64093 35.5325 8.64093 36.1321V47.3599C8.64093 47.9596 9.07144 48.6822 9.60189 48.9666L26.3418 57.9574C26.8684 58.2418 27.3027 57.9843 27.3027 57.3846V37.3045C27.3027 36.7048 26.8837 35.963 26.3687 35.6516L10.0016 25.7922ZM23.259 50.6772C23.259 51.2768 22.8285 51.5343 22.3019 51.246L13.0613 46.2375C12.5347 45.9531 12.1042 45.2266 12.1042 44.627V42.8972C12.1042 42.2976 12.5347 42.0439 13.0613 42.3283L22.3019 47.3369C22.8285 47.6213 23.259 48.3439 23.259 48.9436V50.6772Z" fill="white"/>
<path d="M32.5073 35.5132C31.9845 35.8092 31.5579 36.5395 31.5579 37.1391V57.1501C31.5579 57.7497 31.973 57.9804 32.4804 57.6613L35.1096 56.0046C35.6169 55.6856 36.0321 54.9322 36.0321 54.3326V47.2253C36.0321 46.6257 36.4664 45.9069 36.993 45.6263L44.6384 41.5557C45.1689 41.2751 45.5994 41.5326 45.5994 42.1323V48.5169C45.5994 49.1165 46.026 49.3663 46.5488 49.0742L49.0588 47.6751C49.5816 47.3829 50.0083 46.6526 50.0083 46.053V26.6455C50.0083 26.0458 49.5777 25.7921 49.055 26.0804L46.914 27.2528C46.3874 27.5411 45.9607 28.2676 45.9607 28.8672V35.371C45.9607 35.9706 45.5302 36.6932 45.0036 36.9815L36.8662 41.3942C36.3396 41.6787 35.9091 41.425 35.9091 40.8254V34.6829C35.9091 34.0833 35.4824 33.8334 34.9597 34.1294L32.5073 35.5132Z" fill="white"/>
<path d="M29.2477 0L0 17.6509V54.7362L29.3822 70.0039L59.7331 52.8104V18.2774L29.2477 0ZM55.3627 50.2543L29.29 65.0261L4.35506 52.0993V20.1109L29.2592 5.09308L55.3627 20.7567V50.2543Z" fill="#1FA1DB"/>
<path d="M94.4583 26.5725C91.3294 26.5725 89.1922 27.2106 86.9782 28.1754L88.2159 31.7271C90.011 30.9775 91.6561 30.5009 93.8625 30.5009C97.0452 30.5009 98.7749 31.9962 98.7749 34.7983V35.2903C97.2374 34.7983 95.6576 34.4601 93.4551 34.4601C88.6387 34.4601 85.2677 36.5549 85.2677 40.8101V40.8908C85.2677 44.8615 88.6003 46.9833 92.3019 46.9833C95.3347 46.9833 97.3911 45.7186 98.7365 44.1004V46.5758H103.145V34.8675C103.145 32.296 102.48 30.2011 101.024 28.775C99.6244 27.3451 97.4219 26.5725 94.4583 26.5725ZM98.8364 39.4801C98.8364 41.9824 96.5532 43.6968 93.5588 43.6968C91.3948 43.6968 89.7112 42.609 89.7112 40.7024V40.6332C89.7112 38.5806 91.437 37.3429 94.3507 37.3429C96.1457 37.3429 97.6833 37.685 98.8403 38.1194V39.4801H98.8364Z" fill="white"/>
<path d="M122.968 26.4226C119.893 26.4226 118.059 28.0293 116.791 29.8628V19.2654H112.221V46.5796H116.791V35.4248C116.791 32.3652 118.613 30.5278 121.238 30.5278C123.933 30.5278 125.47 32.296 125.47 35.3557V46.5796H129.987V33.9719C129.987 29.4131 127.415 26.4226 122.968 26.4226Z" fill="white"/>
<path d="M147.015 26.5725C143.859 26.5725 141.737 27.2106 139.535 28.1754L140.757 31.7271C142.552 30.9775 144.197 30.5009 146.415 30.5009C149.587 30.5009 151.312 31.9962 151.312 34.7983V35.2903C149.775 34.7983 148.21 34.4601 145.993 34.4601C141.165 34.4601 137.805 36.5549 137.805 40.8101V40.8908C137.805 44.8615 141.138 46.9833 144.839 46.9833C147.872 46.9833 149.929 45.7186 151.274 44.1004V46.5758H155.694V34.8675C155.694 32.296 155.014 30.2011 153.557 28.775C152.173 27.3451 149.967 26.5725 147.015 26.5725ZM151.385 39.4801C151.385 41.9824 149.114 43.6968 146.119 43.6968C143.944 43.6968 142.256 42.609 142.256 40.7024V40.6332C142.256 38.5806 143.982 37.3429 146.896 37.3429C148.691 37.3429 150.228 37.685 151.385 38.1194V39.4801Z" fill="white"/>
<path d="M181.706 27.2107C179.08 27.2107 177.028 27.8757 174.933 28.8443L175.598 30.4626C177.35 29.567 179.269 28.925 181.583 28.925C185.515 28.925 187.867 30.9123 187.867 34.76V35.5902C186.03 35.0982 184.208 34.76 181.54 34.76C176.616 34.76 173.203 37.0048 173.203 40.9754V41.0446C173.203 45.0038 177.024 47.0295 180.575 47.0295C184.208 47.0295 186.56 45.2344 187.867 43.3971V46.5798H189.662V34.6908C189.662 32.323 188.997 30.5702 187.717 29.3056C186.33 27.918 184.273 27.2107 181.706 27.2107ZM187.906 39.4379C187.906 42.9051 184.573 45.2998 180.683 45.2998C177.773 45.2998 175.148 43.6969 175.148 40.9332V40.8524C175.148 38.2002 177.393 36.4051 181.433 36.4051C184.169 36.4051 186.303 36.8549 187.909 37.2623V39.4379H187.906Z" fill="white"/>
<path d="M209.631 27.0454C205.849 27.0454 203.416 29.2633 201.782 31.7656V27.5105H199.945V52.5684H201.782V42.4745C203.346 44.8693 205.81 47.0333 209.631 47.0333C214.228 47.0333 218.91 43.251 218.91 37.0509V36.9702C218.906 30.7586 214.228 27.0454 209.631 27.0454ZM216.923 37.1124C216.923 42.2401 213.59 45.2729 209.443 45.2729C205.483 45.2729 201.663 41.9825 201.663 37.0855V37.0048C201.663 32.1346 205.483 28.8174 209.443 28.8174C213.456 28.8174 216.923 32.027 216.923 37.0471V37.1124Z" fill="white"/>
<path d="M238.006 27.0454C234.224 27.0454 231.791 29.2633 230.157 31.7656V27.5105H228.32V52.5684H230.157V42.4745C231.721 44.8693 234.185 47.0333 238.006 47.0333C242.603 47.0333 247.285 43.251 247.285 37.0509V36.9702C247.281 30.7586 242.603 27.0454 238.006 27.0454ZM245.298 37.1124C245.298 42.2401 241.965 45.2729 237.818 45.2729C233.859 45.2729 230.038 41.9825 230.038 37.0855V37.0048C230.038 32.1346 233.859 28.8174 237.818 28.8174C241.831 28.8174 245.298 32.027 245.298 37.0471V37.1124Z" fill="white"/>
<path d="M263.183 35.9553C260.45 35.1673 257.863 34.3908 257.863 32.2537V32.1729C257.863 30.2702 259.593 28.8403 262.203 28.8403C264.217 28.8403 266.312 29.6014 268.08 30.7584L269.045 29.2209C267.142 27.9409 264.555 27.126 262.284 27.126C258.571 27.126 255.999 29.3285 255.999 32.4036V32.4727C255.999 35.8861 259.428 36.8124 262.541 37.7119C265.194 38.4576 267.588 39.2879 267.588 41.5327V41.6019C267.588 43.8044 265.574 45.2343 262.991 45.2343C260.558 45.2343 258.229 44.3387 256.134 42.7319L255.057 44.1887C257.072 45.8339 260.104 46.964 262.88 46.964C266.539 46.964 269.464 44.7884 269.464 41.3866V41.3059C269.468 37.9425 266.247 36.8124 263.183 35.9553Z" fill="white"/>
</g>
<defs>
<clipPath id="clip0_0_418">
<rect width="269.468" height="70" fill="white"/>
</clipPath>
</defs>
</svg>
