<svg width="30" height="30" viewBox="0 0 30 30" fill="none" xmlns="http://www.w3.org/2000/svg">
<rect opacity="0.5" width="30" height="30" rx="10" fill="#DDDDDD"/>
<path d="M16.5745 11.8524L18.4752 9.89792C18.5623 9.80828 18.6314 9.70187 18.6786 9.58475C18.7257 9.46762 18.75 9.3421 18.75 9.21533C18.75 8.95931 18.6511 8.71378 18.4752 8.53274C18.388 8.4431 18.2846 8.372 18.1708 8.32348C18.0569 8.27497 17.9349 8.25 17.8117 8.25C17.6885 8.25 17.5664 8.27497 17.4526 8.32348C17.3387 8.372 17.2353 8.4431 17.1482 8.53274L11.5253 14.3174C11.438 14.407 11.3688 14.5134 11.3216 14.6305C11.2743 14.7476 11.25 14.8732 11.25 15C11.25 15.1268 11.2743 15.2524 11.3216 15.3695C11.3688 15.4866 11.438 15.593 11.5253 15.6826L17.1482 21.4673C17.2353 21.5569 17.3387 21.628 17.4526 21.6765C17.5664 21.725 17.6885 21.75 17.8117 21.75C17.9349 21.75 18.0569 21.725 18.1708 21.6765C18.2846 21.628 18.388 21.5569 18.4752 21.4673C18.5623 21.3776 18.6314 21.2712 18.6786 21.1541C18.7257 21.037 18.75 20.9114 18.75 20.7847C18.75 20.6579 18.7257 20.5324 18.6786 20.4152C18.6314 20.2981 18.5623 20.1917 18.4752 20.1021L16.5732 18.1463L13.4994 15L16.5745 11.8524Z" fill="#1FA1DB"/>
</svg>
