<svg width="30" height="30" viewBox="0 0 30 30" fill="none" xmlns="http://www.w3.org/2000/svg">
<rect opacity="0.5" width="30" height="30" rx="10" fill="#DDDDDD"/>
<path d="M13.4255 18.1476L11.5248 20.1021C11.4377 20.1917 11.3686 20.2981 11.3214 20.4152C11.2743 20.5324 11.25 20.6579 11.25 20.7847C11.25 21.0407 11.3489 21.2862 11.5248 21.4673C11.612 21.5569 11.7154 21.628 11.8292 21.6765C11.9431 21.725 12.0651 21.75 12.1883 21.75C12.3115 21.75 12.4336 21.725 12.5474 21.6765C12.6613 21.628 12.7647 21.5569 12.8518 21.4673L18.4747 15.6826C18.562 15.593 18.6312 15.4866 18.6784 15.3695C18.7257 15.2524 18.75 15.1268 18.75 15C18.75 14.8732 18.7257 14.7476 18.6784 14.6305C18.6312 14.5134 18.562 14.407 18.4747 14.3174L12.8518 8.53274C12.7647 8.4431 12.6613 8.372 12.5474 8.32348C12.4336 8.27497 12.3115 8.25 12.1883 8.25C12.0651 8.25 11.9431 8.27497 11.8292 8.32348C11.7154 8.372 11.612 8.4431 11.5248 8.53274C11.4377 8.62237 11.3686 8.7288 11.3214 8.84592C11.2743 8.96303 11.25 9.08855 11.25 9.21533C11.25 9.3421 11.2743 9.46762 11.3214 9.58475C11.3686 9.70187 11.4377 9.80828 11.5248 9.89792L13.4268 11.8537L16.5006 15L13.4255 18.1476Z" fill="#1FA1DB"/>
</svg>
