<svg width="40" height="40" viewBox="0 0 40 40" fill="none" xmlns="http://www.w3.org/2000/svg">
<rect width="40" height="40" rx="20" fill="white" fill-opacity="0.1"/>
<path d="M29.6207 14.7793C28.9359 15.0799 28.2003 15.2831 27.427 15.3749C28.2249 14.9018 28.8219 14.1572 29.1065 13.28C28.3568 13.7212 27.5363 14.0318 26.6807 14.1982C26.1053 13.5895 25.3432 13.186 24.5127 13.0504C23.6822 12.9148 22.8297 13.0547 22.0877 13.4484C21.3456 13.8421 20.7555 14.4675 20.4089 15.2276C20.0623 15.9877 19.9787 16.8399 20.1709 17.6519C18.6519 17.5764 17.1659 17.1851 15.8093 16.5036C14.4527 15.8221 13.2559 14.8655 12.2965 13.696C11.9685 14.2568 11.7799 14.9069 11.7799 15.5992C11.7795 16.2225 11.9344 16.8362 12.2308 17.386C12.5273 17.9357 12.956 18.4045 13.4791 18.7506C12.8725 18.7315 12.2792 18.5691 11.7487 18.2768V18.3256C11.7487 19.1998 12.0538 20.0471 12.6124 20.7237C13.171 21.4003 13.9487 21.8646 14.8134 22.0377C14.2506 22.1886 13.6606 22.2109 13.0879 22.1027C13.3319 22.8549 13.8071 23.5127 14.4471 23.9839C15.0871 24.4551 15.8597 24.7163 16.6569 24.7308C15.3036 25.7835 13.6324 26.3545 11.9119 26.352C11.6072 26.3521 11.3027 26.3344 11 26.2992C12.7463 27.4118 14.7792 28.0023 16.8554 28C23.8834 28 27.7255 22.2319 27.7255 17.2294C27.7255 17.0668 27.7214 16.9027 27.714 16.7402C28.4613 16.2046 29.1064 15.5414 29.6191 14.7817L29.6207 14.7793Z" fill="#1FA1DB"/>
</svg>
